<?xml version="1.0" encoding="UTF-8"?><svg xmlns="http://www.w3.org/2000/svg" xmlns:xlink="http://www.w3.org/1999/xlink" contentScriptType="text/ecmascript" width="150" zoomAndPan="magnify" contentStyleType="text/css" viewBox="0 0 150 135.000003" height="135.000003" preserveAspectRatio="xMidYMid meet" version="1.0"><defs><clipPath id="clip-0"><path d="M 0.550781 8.933594 L 149.449219 8.933594 L 149.449219 31 L 0.550781 31 Z M 0.550781 8.933594 " clip-rule="nonzero"/></clipPath><clipPath id="clip-1"><path d="M 0.550781 30 L 149.449219 30 L 149.449219 120.605469 L 0.550781 120.605469 Z M 0.550781 30 " clip-rule="nonzero"/></clipPath></defs><g clip-path="url(#clip-0)"><path fill="rgb(27.059937%, 35.289001%, 39.219666%)" d="M 149.449219 24.445312 L 149.449219 30.648438 L 0.550781 30.648438 L 0.550781 24.445312 C 0.550781 23.425781 0.652344 22.417969 0.847656 21.417969 C 1.046875 20.417969 1.34375 19.449219 1.730469 18.507812 C 2.121094 17.566406 2.597656 16.671875 3.164062 15.828125 C 3.730469 14.980469 4.375 14.195312 5.09375 13.476562 C 5.8125 12.757812 6.597656 12.113281 7.445312 11.546875 C 8.292969 10.980469 9.183594 10.503906 10.125 10.113281 C 11.066406 9.726562 12.035156 9.429688 13.035156 9.230469 C 14.035156 9.03125 15.042969 8.933594 16.0625 8.933594 L 133.9375 8.933594 C 134.957031 8.933594 135.964844 9.03125 136.964844 9.230469 C 137.964844 9.429688 138.933594 9.726562 139.875 10.113281 C 140.816406 10.503906 141.707031 10.980469 142.554688 11.546875 C 143.402344 12.113281 144.1875 12.757812 144.90625 13.476562 C 145.625 14.195312 146.269531 14.980469 146.835938 15.828125 C 147.398438 16.671875 147.878906 17.566406 148.269531 18.507812 C 148.65625 19.449219 148.953125 20.417969 149.152344 21.417969 C 149.347656 22.417969 149.449219 23.425781 149.449219 24.445312 Z M 149.449219 24.445312 " fill-opacity="1" fill-rule="nonzero"/></g><g clip-path="url(#clip-1)"><path fill="rgb(92.549133%, 93.728638%, 94.509888%)" d="M 149.449219 30.648438 L 149.449219 105.097656 C 149.449219 106.113281 149.347656 107.125 149.152344 108.121094 C 148.953125 109.121094 148.65625 110.089844 148.269531 111.03125 C 147.878906 111.972656 147.402344 112.867188 146.835938 113.714844 C 146.269531 114.558594 145.625 115.34375 144.90625 116.0625 C 144.1875 116.785156 143.402344 117.425781 142.554688 117.992188 C 141.707031 118.558594 140.816406 119.035156 139.875 119.425781 C 138.933594 119.816406 137.964844 120.109375 136.964844 120.308594 C 135.964844 120.507812 134.957031 120.605469 133.9375 120.605469 L 16.0625 120.605469 C 15.042969 120.605469 14.035156 120.507812 13.035156 120.308594 C 12.035156 120.109375 11.066406 119.816406 10.125 119.425781 C 9.183594 119.035156 8.292969 118.558594 7.445312 117.992188 C 6.597656 117.425781 5.8125 116.785156 5.09375 116.0625 C 4.375 115.34375 3.730469 114.558594 3.164062 113.714844 C 2.597656 112.867188 2.121094 111.972656 1.730469 111.03125 C 1.34375 110.089844 1.046875 109.121094 0.847656 108.121094 C 0.652344 107.125 0.550781 106.113281 0.550781 105.097656 L 0.550781 30.648438 Z M 149.449219 30.648438 " fill-opacity="1" fill-rule="nonzero"/></g><path fill="rgb(0%, 73.728943%, 83.139038%)" d="M 68.398438 88.679688 L 59.09375 86.359375 L 58.703125 84.796875 C 61.191406 82.035156 62.804688 78.832031 63.546875 75.1875 C 64.398438 74.746094 65.097656 74.136719 65.644531 73.351562 C 66.195312 72.566406 66.527344 71.699219 66.648438 70.75 L 67.324219 65.359375 C 67.425781 64.542969 67.355469 63.738281 67.117188 62.949219 C 66.875 62.164062 66.484375 61.457031 65.941406 60.835938 C 65.609375 60.453125 65.230469 60.121094 64.808594 59.839844 L 64.96875 56.550781 L 65.539062 55.972656 C 65.871094 55.625 66.171875 55.246094 66.4375 54.84375 C 66.699219 54.441406 66.925781 54.015625 67.113281 53.570312 C 67.300781 53.125 67.445312 52.667969 67.546875 52.195312 C 67.648438 51.722656 67.707031 51.246094 67.722656 50.761719 C 67.738281 50.28125 67.710938 49.800781 67.636719 49.324219 C 67.566406 48.847656 67.449219 48.378906 67.292969 47.925781 C 67.132812 47.46875 66.9375 47.03125 66.699219 46.609375 C 66.460938 46.191406 66.183594 45.796875 65.875 45.425781 C 65.222656 44.5 64.464844 43.671875 63.597656 42.941406 C 62.730469 42.210938 61.785156 41.609375 60.757812 41.128906 C 59.730469 40.648438 58.660156 40.308594 57.546875 40.109375 C 56.429688 39.910156 55.308594 39.859375 54.179688 39.953125 C 52.292969 39.878906 50.433594 40.070312 48.601562 40.535156 C 46.769531 40.996094 45.039062 41.707031 43.414062 42.671875 C 30.648438 43.113281 29.144531 50 29.144531 55.191406 C 29.144531 56.214844 29.324219 58.136719 29.503906 59.734375 C 29.039062 60.027344 28.625 60.378906 28.261719 60.792969 C 27.894531 61.203125 27.59375 61.660156 27.359375 62.15625 C 27.125 62.65625 26.964844 63.175781 26.878906 63.71875 C 26.789062 64.261719 26.78125 64.808594 26.851562 65.351562 L 27.527344 70.746094 C 27.652344 71.75 28.023438 72.660156 28.632812 73.46875 C 29.246094 74.273438 30.023438 74.875 30.957031 75.265625 C 31.6875 78.75 33.21875 81.835938 35.542969 84.53125 L 35.089844 86.355469 L 25.785156 88.675781 C 24.875 88.902344 23.988281 89.199219 23.128906 89.574219 C 22.269531 89.945312 21.445312 90.390625 20.660156 90.898438 C 19.871094 91.410156 19.132812 91.980469 18.441406 92.617188 C 17.75 93.25 17.117188 93.933594 16.539062 94.675781 C 15.960938 95.414062 15.449219 96.195312 15.003906 97.019531 C 14.554688 97.84375 14.179688 98.699219 13.875 99.585938 C 13.570312 100.472656 13.34375 101.378906 13.1875 102.304688 C 13.035156 103.226562 12.957031 104.160156 12.960938 105.097656 C 12.960938 105.507812 13.039062 105.902344 13.195312 106.285156 C 13.351562 106.664062 13.578125 107 13.867188 107.289062 C 14.160156 107.582031 14.496094 107.804688 14.875 107.960938 C 15.253906 108.121094 15.648438 108.199219 16.0625 108.199219 L 78.101562 108.199219 C 78.511719 108.199219 78.910156 108.121094 79.289062 107.960938 C 79.667969 107.804688 80.003906 107.582031 80.296875 107.289062 C 80.585938 107 80.808594 106.664062 80.96875 106.285156 C 81.125 105.902344 81.203125 105.507812 81.203125 105.097656 C 81.207031 104.160156 81.128906 103.230469 80.976562 102.304688 C 80.820312 101.382812 80.59375 100.476562 80.289062 99.589844 C 79.984375 98.703125 79.609375 97.847656 79.164062 97.027344 C 78.71875 96.203125 78.207031 95.421875 77.628906 94.683594 C 77.054688 93.945312 76.421875 93.257812 75.730469 92.625 C 75.039062 91.992188 74.300781 91.417969 73.515625 90.910156 C 72.730469 90.398438 71.910156 89.957031 71.050781 89.582031 C 70.191406 89.207031 69.308594 88.90625 68.398438 88.679688 Z M 68.398438 88.679688 " fill-opacity="1" fill-rule="nonzero"/><path fill="rgb(37.649536%, 49.01886%, 54.508972%)" d="M 90.511719 58.566406 L 109.121094 58.566406 C 109.535156 58.566406 109.929688 58.488281 110.308594 58.328125 C 110.6875 58.171875 111.023438 57.949219 111.316406 57.65625 C 111.605469 57.367188 111.832031 57.03125 111.988281 56.652344 C 112.144531 56.269531 112.222656 55.875 112.222656 55.464844 C 112.222656 55.054688 112.144531 54.65625 111.988281 54.277344 C 111.832031 53.898438 111.605469 53.5625 111.316406 53.269531 C 111.023438 52.980469 110.6875 52.753906 110.308594 52.597656 C 109.929688 52.441406 109.535156 52.363281 109.121094 52.363281 L 90.511719 52.363281 C 90.097656 52.363281 89.703125 52.441406 89.324219 52.597656 C 88.941406 52.753906 88.609375 52.980469 88.316406 53.269531 C 88.027344 53.5625 87.800781 53.898438 87.644531 54.277344 C 87.488281 54.65625 87.40625 55.054688 87.40625 55.464844 C 87.40625 55.875 87.488281 56.269531 87.644531 56.652344 C 87.800781 57.03125 88.027344 57.367188 88.316406 57.65625 C 88.609375 57.949219 88.941406 58.171875 89.324219 58.328125 C 89.703125 58.488281 90.097656 58.566406 90.511719 58.566406 Z M 90.511719 58.566406 " fill-opacity="1" fill-rule="nonzero"/><path fill="rgb(37.649536%, 49.01886%, 54.508972%)" d="M 121.53125 58.566406 L 133.9375 58.566406 C 134.351562 58.566406 134.746094 58.488281 135.125 58.328125 C 135.503906 58.171875 135.839844 57.949219 136.132812 57.65625 C 136.421875 57.367188 136.648438 57.03125 136.804688 56.652344 C 136.960938 56.269531 137.039062 55.875 137.039062 55.464844 C 137.039062 55.054688 136.960938 54.65625 136.804688 54.277344 C 136.648438 53.898438 136.421875 53.5625 136.132812 53.269531 C 135.839844 52.980469 135.503906 52.753906 135.125 52.597656 C 134.746094 52.441406 134.351562 52.363281 133.9375 52.363281 L 121.53125 52.363281 C 121.117188 52.363281 120.722656 52.441406 120.34375 52.597656 C 119.964844 52.753906 119.628906 52.980469 119.335938 53.269531 C 119.046875 53.5625 118.820312 53.898438 118.664062 54.277344 C 118.507812 54.65625 118.429688 55.054688 118.429688 55.464844 C 118.429688 55.875 118.507812 56.269531 118.664062 56.652344 C 118.820312 57.03125 119.046875 57.367188 119.335938 57.65625 C 119.628906 57.949219 119.964844 58.171875 120.34375 58.328125 C 120.722656 58.488281 121.117188 58.566406 121.53125 58.566406 Z M 121.53125 58.566406 " fill-opacity="1" fill-rule="nonzero"/><path fill="rgb(37.649536%, 49.01886%, 54.508972%)" d="M 133.9375 70.972656 L 90.511719 70.972656 C 90.097656 70.972656 89.703125 71.054688 89.324219 71.210938 C 88.941406 71.367188 88.609375 71.59375 88.316406 71.882812 C 88.027344 72.171875 87.800781 72.507812 87.644531 72.890625 C 87.488281 73.269531 87.40625 73.664062 87.40625 74.078125 C 87.40625 74.488281 87.488281 74.882812 87.644531 75.261719 C 87.800781 75.644531 88.027344 75.980469 88.316406 76.269531 C 88.609375 76.5625 88.941406 76.785156 89.324219 76.941406 C 89.703125 77.097656 90.097656 77.179688 90.511719 77.179688 L 133.9375 77.179688 C 134.351562 77.179688 134.746094 77.097656 135.125 76.941406 C 135.503906 76.785156 135.839844 76.5625 136.132812 76.269531 C 136.421875 75.980469 136.648438 75.644531 136.804688 75.261719 C 136.960938 74.882812 137.039062 74.488281 137.039062 74.078125 C 137.039062 73.664062 136.960938 73.269531 136.804688 72.890625 C 136.648438 72.507812 136.421875 72.171875 136.132812 71.882812 C 135.839844 71.59375 135.503906 71.367188 135.125 71.210938 C 134.746094 71.054688 134.351562 70.972656 133.9375 70.972656 Z M 133.9375 70.972656 " fill-opacity="1" fill-rule="nonzero"/><path fill="rgb(37.649536%, 49.01886%, 54.508972%)" d="M 96.714844 89.585938 L 90.511719 89.585938 C 90.097656 89.585938 89.703125 89.664062 89.324219 89.824219 C 88.941406 89.980469 88.609375 90.203125 88.316406 90.496094 C 88.027344 90.785156 87.800781 91.121094 87.644531 91.5 C 87.488281 91.882812 87.40625 92.277344 87.40625 92.6875 C 87.40625 93.101562 87.488281 93.496094 87.644531 93.875 C 87.800781 94.253906 88.027344 94.589844 88.316406 94.882812 C 88.609375 95.171875 88.941406 95.398438 89.324219 95.554688 C 89.703125 95.710938 90.097656 95.789062 90.511719 95.789062 L 96.714844 95.789062 C 97.125 95.789062 97.519531 95.710938 97.902344 95.554688 C 98.28125 95.398438 98.617188 95.171875 98.90625 94.882812 C 99.199219 94.589844 99.421875 94.253906 99.578125 93.875 C 99.738281 93.496094 99.816406 93.101562 99.816406 92.6875 C 99.816406 92.277344 99.738281 91.882812 99.578125 91.5 C 99.421875 91.121094 99.199219 90.785156 98.90625 90.496094 C 98.617188 90.203125 98.28125 89.980469 97.902344 89.824219 C 97.519531 89.664062 97.125 89.585938 96.714844 89.585938 Z M 96.714844 89.585938 " fill-opacity="1" fill-rule="nonzero"/><path fill="rgb(37.649536%, 49.01886%, 54.508972%)" d="M 133.9375 89.585938 L 109.121094 89.585938 C 108.710938 89.585938 108.316406 89.664062 107.933594 89.824219 C 107.554688 89.980469 107.21875 90.203125 106.929688 90.496094 C 106.636719 90.785156 106.414062 91.121094 106.257812 91.5 C 106.097656 91.882812 106.019531 92.277344 106.019531 92.6875 C 106.019531 93.101562 106.097656 93.496094 106.257812 93.875 C 106.414062 94.253906 106.636719 94.589844 106.929688 94.882812 C 107.21875 95.171875 107.554688 95.398438 107.933594 95.554688 C 108.316406 95.710938 108.710938 95.789062 109.121094 95.789062 L 133.9375 95.789062 C 134.351562 95.789062 134.746094 95.710938 135.125 95.554688 C 135.503906 95.398438 135.839844 95.171875 136.132812 94.882812 C 136.421875 94.589844 136.648438 94.253906 136.804688 93.875 C 136.960938 93.496094 137.039062 93.101562 137.039062 92.6875 C 137.039062 92.277344 136.960938 91.882812 136.804688 91.5 C 136.648438 91.121094 136.421875 90.785156 136.132812 90.496094 C 135.839844 90.203125 135.503906 89.980469 135.125 89.824219 C 134.746094 89.664062 134.351562 89.585938 133.9375 89.585938 Z M 133.9375 89.585938 " fill-opacity="1" fill-rule="nonzero"/></svg>